<svg id="Icon_awesome-download" data-name="Icon awesome-download" xmlns="http://www.w3.org/2000/svg" width="206.92" height="206.92" viewBox="0 0 206.92 206.92">
  <path id="Icon_awesome-download-2" data-name="Icon awesome-download" d="M87.294,0h32.331a9.676,9.676,0,0,1,9.7,9.7V77.6h35.443a8.068,8.068,0,0,1,5.7,13.781L109,152.887a7.83,7.83,0,0,1-11.033,0L36.413,91.376a8.068,8.068,0,0,1,5.7-13.781H77.6V9.7A9.676,9.676,0,0,1,87.294,0ZM206.92,151.957v45.264a9.676,9.676,0,0,1-9.7,9.7H9.7a9.676,9.676,0,0,1-9.7-9.7V151.957a9.676,9.676,0,0,1,9.7-9.7H68.987l19.8,19.8a20.709,20.709,0,0,0,29.341,0l19.8-19.8h59.287A9.676,9.676,0,0,1,206.92,151.957Zm-50.113,35.564a8.083,8.083,0,1,0-8.083,8.083A8.107,8.107,0,0,0,156.807,187.521Zm25.865,0a8.083,8.083,0,1,0-8.083,8.083A8.107,8.107,0,0,0,182.672,187.521Z" fill="#1d3557"/>
</svg>
